<?xml version="1.0" encoding="utf-8"?>
<!-- Generator: Adobe Illustrator 24.1.2, SVG Export Plug-In . SVG Version: 6.00 Build 0)  -->
<svg version="1.1" id="Vrstva_1" xmlns="http://www.w3.org/2000/svg" x="0px" y="0px"
	 viewBox="0 0 925 175" style="enable-background:new 0 0 925 175;" xml:space="preserve">
<style type="text/css">
	.st0{fill-rule:evenodd;clip-rule:evenodd;fill:#5F6368;}
	.st1{fill:#63666A;}
	.st2{fill:#34A853;}
	.st3{fill:#FBBC04;}
	.st4{fill:#4285F4;}
	.st5{fill:#1A73E8;}
	.st6{fill:#EA4335;}
</style>
<g id="g19" transform="translate(-.035 .006)">
	<path id="path6" class="st0" d="M547.07,104.19l31.43-13.06c-1.73-4.39-6.92-7.45-13.04-7.45
		C557.6,83.68,546.68,90.6,547.07,104.19 M583.95,116.84l11.98,7.99c-3.86,5.72-13.18,15.58-29.29,15.58
		c-19.96,0-34.39-15.46-34.39-35.15c0-20.92,14.56-35.16,32.66-35.16c18.25,0,27.16,14.51,30.09,22.38l1.59,3.99l-47,19.43
		c3.6,7.06,9.19,10.66,17.05,10.66C574.49,126.55,579.96,122.68,583.95,116.84 M507.78,138.27h15.44V34.94h-15.44V138.27z
		 M482.58,105.37c0-12.37-8.26-21.44-18.78-21.44c-10.64,0-19.57,9.06-19.57,21.44c0,12.25,8.93,21.18,19.57,21.18
		C474.32,126.55,482.58,117.63,482.58,105.37z M496.15,72.23v63.11c0,25.96-15.3,36.62-33.42,36.62c-17.05,0-27.3-11.45-31.15-20.77
		l13.45-5.6c2.4,5.72,8.26,12.51,17.72,12.51c11.58,0,18.78-7.18,18.78-20.63v-5.06H481c-3.46,4.27-10.13,7.99-18.51,7.99
		c-17.58,0-33.69-15.32-33.69-35.03c0-19.84,16.11-35.28,33.69-35.28c8.4,0,15.05,3.72,18.51,7.85h0.53v-5.72
		C481.52,72.23,496.15,72.23,496.15,72.23z M327.62,105.25c0-12.66-9.02-21.3-19.48-21.3s-19.48,8.65-19.48,21.3
		c0,12.51,9.02,21.3,19.48,21.3C318.58,126.55,327.62,117.76,327.62,105.25 M342.77,105.25c0,20.24-15.56,35.15-34.65,35.15
		s-34.65-14.91-34.65-35.15c0-20.37,15.56-35.15,34.65-35.15C327.22,70.11,342.77,84.88,342.77,105.25 M405.27,105.25
		c0-12.66-9.02-21.3-19.48-21.3s-19.48,8.65-19.48,21.3c0,12.51,9.02,21.3,19.48,21.3S405.27,117.76,405.27,105.25 M420.44,105.25
		c0,20.24-15.56,35.15-34.65,35.15s-34.65-14.91-34.65-35.15c0-20.37,15.56-35.15,34.65-35.15S420.44,84.88,420.44,105.25
		 M214.13,140.4c-30.09,0-55.38-24.5-55.38-54.59s25.31-54.59,55.4-54.59c16.65,0,28.5,6.53,37.42,15.06l-10.52,10.52
		c-6.39-6-15.05-10.66-26.9-10.66c-21.97,0-39.15,17.72-39.15,39.69s17.19,39.67,39.15,39.67c14.24,0,22.36-5.72,27.57-10.92
		c4.27-4.25,7.06-10.38,8.12-18.77h-35.69V80.9h50.19c0.55,2.66,0.8,5.86,0.8,9.32c0,11.19-3.07,25.04-12.9,34.89
		C242.63,135.09,230.38,140.4,214.13,140.4"/>
	<g id="flowRoot2998" transform="translate(-384.028 -1510.84) scale(4.21911)">
		<path id="path3911" class="st1" d="M241.07,390.64V368.9h2.79l7.56,13.24h0.12l7.56-13.24h2.79v21.74h-2.79v-12.9l0.12-3.64h-0.12
			l-6.8,11.93h-1.64l-6.8-11.93h-0.12l0.12,3.64v12.9H241.07z"/>
		<path id="path3913" class="st1" d="M270.49,391.12c-1.58,0-2.9-0.46-3.96-1.37s-1.59-2.11-1.59-3.61c0-1.62,0.62-2.88,1.88-3.81
			c1.26-0.93,2.81-1.38,4.65-1.38c1.64,0,2.99,0.3,4.04,0.91v-0.43c0-1.09-0.38-1.97-1.12-2.63c-0.74-0.65-1.67-0.99-2.76-0.99
			c-0.8,0-1.55,0.2-2.2,0.58c-0.65,0.38-1.11,0.91-1.35,1.58l-2.55-1.09c0.35-0.9,1.02-1.72,2.03-2.47
			c1.02-0.76,2.35-1.14,4.01-1.14c1.9,0,3.48,0.56,4.74,1.67c1.26,1.11,1.88,2.69,1.88,4.71v8.99h-2.67v-2.06h-0.12
			C274.27,390.27,272.63,391.12,270.49,391.12L270.49,391.12z M270.95,388.57c1.15,0,2.2-0.43,3.14-1.29s1.41-1.88,1.41-3.05
			c-0.79-0.65-1.97-0.97-3.55-0.97c-1.35,0-2.38,0.29-3.07,0.88c-0.68,0.59-1.03,1.28-1.03,2.06c0,0.73,0.32,1.31,0.94,1.73
			C269.42,388.36,270.14,388.57,270.95,388.57L270.95,388.57z"/>
		<path id="path3915" class="st1" d="M289.06,391.12c-1.14,0-2.16-0.24-3.05-0.73c-0.9-0.49-1.58-1.09-2.02-1.82h-0.12l0.12,2.06
			v6.56h-2.79v-21.44h2.67v2.06h0.12c0.44-0.73,1.12-1.34,2.02-1.82c0.9-0.49,1.91-0.73,3.05-0.73c1.93,0,3.58,0.76,4.98,2.28
			c1.4,1.52,2.1,3.4,2.1,5.65s-0.7,4.13-2.1,5.65C292.64,390.36,290.99,391.12,289.06,391.12L289.06,391.12z M288.61,388.57
			c1.29,0,2.41-0.49,3.34-1.47c0.93-0.99,1.4-2.28,1.4-3.9s-0.47-2.91-1.4-3.9c-0.93-0.99-2.05-1.47-3.34-1.47
			c-1.32,0-2.43,0.49-3.36,1.46s-1.38,2.28-1.38,3.92c0,1.64,0.46,2.95,1.38,3.92C286.18,388.09,287.3,388.57,288.61,388.57
			L288.61,388.57z"/>
		<path id="path3917" class="st1" d="M304.23,391.12c-1.65,0-3.04-0.41-4.11-1.21c-1.08-0.8-1.88-1.82-2.38-3.04l2.49-1.03
			c0.79,1.87,2.14,2.79,4.04,2.79c0.87,0,1.58-0.2,2.14-0.58c0.56-0.38,0.84-0.9,0.84-1.52c0-0.97-0.68-1.62-2.03-1.97l-3.01-0.73
			c-0.96-0.24-1.85-0.7-2.7-1.38c-0.85-0.68-1.28-1.59-1.28-2.75c0-1.32,0.58-2.38,1.75-3.2c1.17-0.82,2.55-1.23,4.14-1.23
			c1.32,0,2.49,0.3,3.52,0.9s1.78,1.46,2.22,2.57l-2.43,1c-0.55-1.32-1.69-1.97-3.4-1.97c-0.84,0-1.53,0.17-2.1,0.52
			c-0.56,0.35-0.85,0.8-0.85,1.4c0,0.85,0.65,1.43,1.97,1.73l2.95,0.7c1.4,0.32,2.43,0.88,3.1,1.67c0.67,0.79,1,1.69,1,2.67
			c0,1.34-0.55,2.44-1.64,3.34C307.36,390.67,305.94,391.12,304.23,391.12L304.23,391.12z"/>
	</g>
	<g id="g842" transform="translate(-583.265 52.894)">
		<path id="path835" class="st2" d="M616.99,75.53c5.24,6.54,10.55,14.74,13.35,19.71c3.4,6.45,4.8,10.81,7.33,18.58
			c1.49,4.28,2.88,5.59,5.85,5.59c3.23,0,4.71-2.19,5.85-5.59c2.35-7.33,4.19-12.9,7.06-18.23c5.66-10.2,12.83-19.28,19.8-28
			c1.91-2.44,14.13-16.84,19.63-28.25c0,0,6.71-12.48,6.71-29.92c0-16.31-6.63-27.65-6.63-27.65l-19.19,5.15l-11.69,30.7l-2.88,4.19
			l-0.61,0.79l-0.79,0.96l-1.31,1.56l-1.91,1.91l-10.38,8.46l-25.9,15L616.99,75.53z"/>
		<path id="path833" class="st3" d="M590.21,37.24c6.36,14.48,18.49,27.13,26.78,38.29l43.88-51.98c0,0-6.19,8.11-17.35,8.11
			c-12.48,0-22.59-9.94-22.59-22.5c0-8.64,5.15-14.56,5.15-14.56l-29.76,7.94L590.21,37.24z"/>
		<path id="path831" class="st4" d="M661.39-47.28c14.56,4.71,27.04,14.56,34.54,29.13l-35.07,41.78c0,0,5.15-6.01,5.15-14.56
			c0-12.83-10.81-22.5-22.5-22.5c-11.08,0-17.44,8.03-17.44,8.03v-26.36L661.39-47.28z"/>
		<path id="path829" class="st5" d="M598.23-28.88c8.71-10.38,23.99-21.1,45.09-21.1c10.2,0,17.96,2.7,17.96,2.7L626.06-5.41h-24.94
			L598.23-28.88z"/>
		<path id="path827" class="st6" d="M590.21,37.24c0,0-5.75-11.43-5.75-27.9c0-15.61,6.1-29.23,13.86-38.12l27.83,23.46
			L590.21,37.24z"/>
	</g>
</g>
</svg>
